<svg width="17" height="19" viewBox="0 0 17 19" fill="none" xmlns="http://www.w3.org/2000/svg">
<path d="M1 4.33301H2.6H15.4" stroke="#333333" stroke-width="2" stroke-linecap="round" stroke-linejoin="round"/>
<path d="M4.99961 4.33333V2.66667C4.99961 2.22464 5.16818 1.80072 5.46823 1.48816C5.76829 1.17559 6.17526 1 6.5996 1H9.7996C10.2239 1 10.6309 1.17559 10.931 1.48816C11.231 1.80072 11.3996 2.22464 11.3996 2.66667V4.33333M13.7996 4.33333V16C13.7996 16.442 13.631 16.866 13.331 17.1785C13.0309 17.4911 12.6239 17.6667 12.1996 17.6667H4.19961C3.77526 17.6667 3.3683 17.4911 3.06824 17.1785C2.76818 16.866 2.59961 16.442 2.59961 16V4.33333H13.7996Z" stroke="#333333" stroke-width="2" stroke-linecap="round" stroke-linejoin="round"/>
</svg>
