<?xml version="1.0" encoding="utf-8"?>
<!-- Generator: Adobe Illustrator 24.1.2, SVG Export Plug-In . SVG Version: 6.00 Build 0)  -->
<svg version="1.1" id="Layer_1" xmlns="http://www.w3.org/2000/svg" xmlns:xlink="http://www.w3.org/1999/xlink" x="0px" y="0px"
	 viewBox="0 0 20 20" style="enable-background:new 0 0 20 20;" xml:space="preserve">
<style type="text/css">
	.st0{fill-rule:evenodd;clip-rule:evenodd;fill:#25282B;}
</style>
<path class="st0" d="M10,2.9c1.1-1,2.3-1.9,4.3-1.9c0.8,0,1.5,0.2,2.2,0.4c0.7,0.3,1.3,0.7,1.9,1.3c0.5,0.5,1,1.2,1.2,1.9
	C19.9,5.3,20,6.1,20,6.8c0,0.8-0.1,1.5-0.4,2.2c-0.3,0.7-0.7,1.3-1.2,1.9c0,0,0,0,0,0L10,19.4l-8.3-8.5C0.6,9.8,0,8.4,0,6.8
	c0-1.5,0.6-3,1.7-4.1C2.7,1.6,4.2,1,5.7,1C7.7,1,9,1.9,10,2.9z"/>
</svg>
