<svg width="20" height="20" viewBox="0 0 20 20" fill="#000000" xmlns="http://www.w3.org/2000/svg">
<path fill-rule="evenodd" clip-rule="evenodd" d="M10.0042 2.93062C11.0616 1.92764 12.3467 1 14.2623 1C15.0185 1 15.7668 1.15186 16.4643 1.4464C17.1617 1.74092 17.7942 2.17208 18.326 2.71431C18.8578 3.25617 19.2788 3.89847 19.5656 4.60406C19.8526 5.30976 20 6.06552 20 6.82833C20 7.59113 19.8526 8.34689 19.5656 9.05259C19.2787 9.75825 18.8577 10.4006 18.3258 10.9425C18.3258 10.9426 18.3259 10.9425 18.3258 10.9425L9.99977 19.4278L1.67373 10.9425C0.599945 9.84819 0 8.36792 0 6.82833C0 5.28873 0.599945 3.80847 1.67373 2.71414C2.74815 1.61917 4.20946 1.00047 5.73725 1.00047C7.73186 1.00047 8.97652 1.93604 10.0042 2.93062ZM14.2623 3C12.821 3 11.9537 3.78129 10.7135 5.04513L9.99977 5.77256L9.286 5.04513C8.04123 3.77656 7.26841 3.00047 5.73725 3.00047C4.75225 3.00047 3.80367 3.39907 3.10128 4.11489C2.39826 4.83136 2 5.80707 2 6.82833C2 7.84959 2.39826 8.82529 3.10128 9.54176L9.99977 16.5722L16.8983 9.54176C17.2463 9.18723 17.5235 8.7651 17.7129 8.29932C17.9023 7.83352 18 7.33361 18 6.82833C18 6.32304 17.9023 5.82314 17.7129 5.35733C17.5235 4.89156 17.2465 4.46959 16.8984 4.11506C16.5506 3.7604 16.1383 3.47975 15.6862 3.28886C15.2342 3.09799 14.7504 3 14.2623 3Z" fill="#25282B"/>
</svg>
