<svg width="15" height="16" viewBox="0 0 15 16" fill="none" xmlns="http://www.w3.org/2000/svg">
<path d="M1.57178 3.92773H2.92892H13.7861" stroke="#333333" stroke-width="1.6" stroke-linecap="round" stroke-linejoin="round"/>
<path d="M4.96442 3.92815V2.57101C4.96442 2.21107 5.10741 1.86588 5.36192 1.61137C5.61644 1.35685 5.96163 1.21387 6.32157 1.21387H9.03585C9.39579 1.21387 9.74098 1.35685 9.9955 1.61137C10.25 1.86588 10.393 2.21107 10.393 2.57101V3.92815M12.4287 3.92815V13.4282C12.4287 13.7881 12.2857 14.1333 12.0312 14.3878C11.7767 14.6423 11.4315 14.7853 11.0716 14.7853H4.28585C3.92592 14.7853 3.58072 14.6423 3.32621 14.3878C3.0717 14.1333 2.92871 13.7881 2.92871 13.4282V3.92815H12.4287Z" stroke="#333333" stroke-width="1.6" stroke-linecap="round" stroke-linejoin="round"/>
</svg>
